<svg xmlns="http://www.w3.org/2000/svg"
    xmlns:xlink="http://www.w3.org/1999/xlink" width="500" zoomAndPan="magnify" viewBox="0 0 375 374.999991" height="500" preserveAspectRatio="xMidYMid meet" version="1.0" style="background: none;">
    <defs>
        <g/>
    </defs>
    <path stroke-linecap="butt" transform="matrix(2.882763, 0, 0, 2.882763, -1.743971, -7.086526)" fill="none" stroke-linejoin="miter" d="M 39.751977 101.248552 C 34.791188 101.248552 30.222004 100.384038 26.045781 98.657721 C 21.869557 96.915144 18.251609 94.489628 15.189226 91.381174 C 12.144458 88.256459 9.781274 84.558564 8.101029 80.288843 C 6.437043 76.002862 5.605051 71.315789 5.605051 66.228981 C 5.605051 61.158434 6.437043 56.487622 8.101029 52.217901 C 9.781274 47.93192 12.144458 44.234024 15.189226 41.12557 C 18.251609 38.000855 21.869557 35.575339 26.045781 33.849023 C 30.222004 32.106445 34.791188 31.235157 39.751977 31.235157 C 45.089467 31.235157 49.987925 32.216203 54.447351 34.178297 C 58.921683 36.125484 62.744241 38.91957 65.916382 42.561909 C 69.103429 46.189342 71.442222 50.482099 72.934118 55.444244 L 63.867567 55.444244 C 62.12499 50.545786 59.110033 46.698836 54.824051 43.904751 C 50.552976 41.10931 45.623352 39.712267 40.03518 39.712267 C 35.010704 39.712267 30.567538 40.842367 26.705683 43.103924 C 22.858734 45.34922 19.820742 48.465804 17.591706 52.452322 C 15.377576 56.440196 14.270511 61.032415 14.270511 66.228981 C 14.270511 71.441808 15.377576 76.042158 17.591706 80.030031 C 19.820742 84.017904 22.858734 87.141264 26.705683 89.40282 C 30.567538 91.648116 35.010704 92.770087 40.03518 92.770087 C 45.74937 92.770087 50.828048 91.294451 55.271214 88.343181 C 59.714379 85.375651 62.799798 81.348482 64.526115 76.261674 L 73.499168 76.261674 C 72.148197 81.28615 69.848699 85.665629 66.599321 89.40282 C 63.348588 93.123751 59.424401 96.027595 54.824051 98.115707 C 50.239962 100.203818 45.215486 101.248552 39.751977 101.248552 Z M 39.751977 101.248552 " stroke="#000000" stroke-width="1.447006" stroke-opacity="1" stroke-miterlimit="4"/>
    <path stroke-linecap="butt" transform="matrix(2.882763, 0, 0, 2.882763, -1.743971, -7.086526)" fill="none" stroke-linejoin="miter" d="M 96.655392 100.000563 L 96.655392 40.583555 L 73.789146 40.583555 L 73.789146 32.483146 L 127.906605 32.483146 L 127.906605 40.583555 L 105.133857 40.583555 L 105.133857 100.000563 Z M 96.655392 100.000563 " stroke="#000000" stroke-width="1.447006" stroke-opacity="1" stroke-miterlimit="4"/>
    <g fill="#23a0d1" fill-opacity="1">
        <g transform="translate(-1.743971, 281.189784)">
            <g>
                <path d="M 114.5625 3.609375 C 100.289062 3.609375 87.128906 1.109375 75.078125 -3.890625 C 63.023438 -8.898438 52.597656 -15.898438 43.796875 -24.890625 C 34.992188 -33.878906 28.179688 -44.535156 23.359375 -56.859375 C 18.535156 -69.191406 16.125 -82.679688 16.125 -97.328125 C 16.125 -111.972656 18.535156 -125.457031 23.359375 -137.78125 C 28.179688 -150.113281 34.992188 -160.773438 43.796875 -169.765625 C 52.597656 -178.753906 63.023438 -185.75 75.078125 -190.75 C 87.128906 -195.757812 100.289062 -198.265625 114.5625 -198.265625 C 129.957031 -198.265625 144.09375 -195.4375 156.96875 -189.78125 C 169.851562 -184.132812 180.882812 -176.070312 190.0625 -165.59375 C 199.238281 -155.125 205.960938 -142.75 210.234375 -128.46875 L 184.09375 -128.46875 C 179.082031 -142.5625 170.410156 -153.640625 158.078125 -161.703125 C 145.753906 -169.765625 131.53125 -173.796875 115.40625 -173.796875 C 100.945312 -173.796875 88.15625 -170.550781 77.03125 -164.0625 C 65.90625 -157.570312 57.144531 -148.582031 50.75 -137.09375 C 44.351562 -125.601562 41.15625 -112.347656 41.15625 -97.328125 C 41.15625 -82.304688 44.351562 -69.050781 50.75 -57.5625 C 57.144531 -46.070312 65.90625 -37.082031 77.03125 -30.59375 C 88.15625 -24.101562 100.945312 -20.859375 115.40625 -20.859375 C 131.90625 -20.859375 146.550781 -25.117188 159.34375 -33.640625 C 172.132812 -42.171875 181.03125 -53.757812 186.03125 -68.40625 L 211.890625 -68.40625 C 208.003906 -53.945312 201.378906 -41.335938 192.015625 -30.578125 C 182.648438 -19.828125 171.335938 -11.441406 158.078125 -5.421875 C 144.828125 0.597656 130.320312 3.609375 114.5625 3.609375 Z M 114.5625 3.609375 "/>
            </g>
        </g>
    </g>
    <g fill="#909739" fill-opacity="1">
        <g transform="translate(201.53587, 281.189784)">
            <g>
                <path d="M 75.359375 0 L 75.359375 -171.296875 L 9.453125 -171.296875 L 9.453125 -194.65625 L 165.453125 -194.65625 L 165.453125 -171.296875 L 99.828125 -171.296875 L 99.828125 0 Z M 75.359375 0 "/>
            </g>
        </g>
    </g>
</svg>