<svg xmlns="http://www.w3.org/2000/svg" xmlns:xlink="http://www.w3.org/1999/xlink" width="500" zoomAndPan="magnify" viewBox="0 0 375 374.999991" height="500" preserveAspectRatio="xMidYMid meet" version="1.0"><defs><g/><clipPath id="097e7dae1c"><path d="M 41.496094 168.019531 L 333.503906 168.019531 L 333.503906 207.050781 L 41.496094 207.050781 Z M 41.496094 168.019531 " clip-rule="nonzero"/></clipPath></defs><rect x="-37.5" width="450" fill="#ffffff" y="-37.499999" height="449.999989" fill-opacity="1"/><rect x="-37.5" width="450" fill="#fafafa" y="-37.499999" height="449.999989" fill-opacity="1"/><g fill="#23a0d1" fill-opacity="1"><g transform="translate(189.609674, 262.874983)"><g><path d="M 81.59375 -3.609375 L 81.59375 -148.25 L 101.015625 -148.25 C 107.953125 -148.25 114.019531 -144.707031 119.21875 -137.625 C 124.414062 -130.550781 127.84375 -120.910156 129.5 -108.703125 L 134.25 -108.703125 L 130.859375 -148.03125 C 130.703125 -150.59375 129.191406 -151.875 126.328125 -151.875 L 14.921875 -151.875 C 12.054688 -151.875 10.546875 -150.59375 10.390625 -148.03125 L 7 -108.703125 L 11.75 -108.703125 C 13.40625 -120.910156 16.832031 -130.550781 22.03125 -137.625 C 27.226562 -144.707031 33.296875 -148.25 40.234375 -148.25 L 59.65625 -148.25 L 59.65625 -3.609375 L 40.234375 -3.609375 L 40.234375 0 L 101.015625 0 L 101.015625 -3.609375 Z M 81.59375 -3.609375 "/></g></g></g><g fill="#909739" fill-opacity="1"><g transform="translate(58.23812, 262.542841)"><g><path d="M 128.859375 -45.8125 C 128.109375 -45.8125 127.359375 -44.984375 126.609375 -43.328125 C 123.898438 -37.160156 120.960938 -31.40625 117.796875 -26.0625 C 114.640625 -20.71875 111.03125 -16.085938 106.96875 -12.171875 C 102.90625 -8.265625 98.390625 -5.222656 93.421875 -3.046875 C 88.460938 -0.867188 82.972656 0.21875 76.953125 0.21875 C 63.265625 0.21875 53.109375 -5.117188 46.484375 -15.796875 C 39.867188 -26.472656 36.5625 -42.117188 36.5625 -62.734375 L 36.5625 -88.015625 C 36.5625 -107.867188 39.945312 -123.175781 46.71875 -133.9375 C 53.488281 -144.695312 63.941406 -150.078125 78.078125 -150.078125 C 83.953125 -150.078125 89.296875 -149.132812 94.109375 -147.25 C 98.921875 -145.375 103.28125 -142.78125 107.1875 -139.46875 C 111.101562 -136.15625 114.488281 -132.164062 117.34375 -127.5 C 120.207031 -122.84375 122.539062 -117.804688 124.34375 -112.390625 C 124.789062 -110.878906 125.316406 -110.125 125.921875 -110.125 C 126.671875 -110.125 127.046875 -111.023438 127.046875 -112.828125 L 127.046875 -149.625 C 127.046875 -150.976562 126.894531 -151.878906 126.59375 -152.328125 C 126.300781 -152.773438 125.851562 -153 125.25 -153 C 124.5 -153 123.519531 -152.398438 122.3125 -151.203125 L 113.515625 -142.171875 C 108.703125 -146.085938 103.285156 -149.0625 97.265625 -151.09375 C 91.242188 -153.125 84.847656 -154.140625 78.078125 -154.140625 C 68.148438 -154.140625 58.9375 -151.878906 50.4375 -147.359375 C 41.9375 -142.847656 34.5625 -136.90625 28.3125 -129.53125 C 22.070312 -122.164062 17.222656 -113.78125 13.765625 -104.375 C 10.304688 -94.96875 8.578125 -85.453125 8.578125 -75.828125 C 8.578125 -64.691406 10.566406 -54.269531 14.546875 -44.5625 C 18.535156 -34.863281 23.765625 -26.398438 30.234375 -19.171875 C 36.703125 -11.953125 44 -6.238281 52.125 -2.03125 C 60.25 2.175781 68.523438 4.28125 76.953125 4.28125 C 84.023438 4.28125 90.796875 2.890625 97.265625 0.109375 C 103.734375 -2.671875 109.523438 -6.921875 114.640625 -12.640625 L 126.609375 0.453125 C 127.359375 1.203125 128.035156 1.578125 128.640625 1.578125 C 129.535156 1.578125 129.984375 1.050781 129.984375 0 L 129.984375 -43.546875 C 129.984375 -45.054688 129.609375 -45.8125 128.859375 -45.8125 Z M 128.859375 -45.8125 "/></g></g></g><g clip-path="url(#097e7dae1c)"><path fill="#fafafa" d="M 41.496094 168.019531 L 333.460938 168.019531 L 333.460938 207.050781 L 41.496094 207.050781 Z M 41.496094 168.019531 " fill-opacity="1" fill-rule="nonzero"/></g><g fill="#000000" fill-opacity="1"><g transform="translate(66.908409, 198.979674)"><g><path d="M 11.640625 0.328125 C 9.660156 0.328125 7.863281 -0.0976562 6.25 -0.953125 C 4.644531 -1.816406 3.382812 -3.015625 2.46875 -4.546875 C 1.550781 -6.085938 1.09375 -7.820312 1.09375 -9.75 C 1.09375 -11.675781 1.550781 -13.40625 2.46875 -14.9375 C 3.382812 -16.476562 4.644531 -17.675781 6.25 -18.53125 C 7.863281 -19.394531 9.671875 -19.828125 11.671875 -19.828125 C 13.359375 -19.828125 14.882812 -19.53125 16.25 -18.9375 C 17.613281 -18.34375 18.765625 -17.488281 19.703125 -16.375 L 16.796875 -13.703125 C 15.484375 -15.222656 13.847656 -15.984375 11.890625 -15.984375 C 10.679688 -15.984375 9.601562 -15.71875 8.65625 -15.1875 C 7.71875 -14.664062 6.984375 -13.929688 6.453125 -12.984375 C 5.921875 -12.035156 5.65625 -10.957031 5.65625 -9.75 C 5.65625 -8.539062 5.921875 -7.460938 6.453125 -6.515625 C 6.984375 -5.566406 7.71875 -4.828125 8.65625 -4.296875 C 9.601562 -3.773438 10.679688 -3.515625 11.890625 -3.515625 C 13.847656 -3.515625 15.484375 -4.285156 16.796875 -5.828125 L 19.703125 -3.140625 C 18.765625 -2.015625 17.609375 -1.15625 16.234375 -0.5625 C 14.867188 0.03125 13.335938 0.328125 11.640625 0.328125 Z M 11.640625 0.328125 "/></g></g></g><g fill="#000000" fill-opacity="1"><g transform="translate(92.889222, 198.979674)"><g><path d="M 2.3125 -19.5 L 6.828125 -19.5 L 6.828125 0 L 2.3125 0 Z M 2.3125 -19.5 "/></g></g></g><g fill="#000000" fill-opacity="1"><g transform="translate(107.59328, 198.979674)"><g><path d="M 6.359375 -15.828125 L 0.109375 -15.828125 L 0.109375 -19.5 L 17.109375 -19.5 L 17.109375 -15.828125 L 10.859375 -15.828125 L 10.859375 0 L 6.359375 0 Z M 6.359375 -15.828125 "/></g></g></g><g fill="#000000" fill-opacity="1"><g transform="translate(130.372051, 198.979674)"><g><path d="M 14.734375 0 L 10.984375 -5.4375 L 6.828125 -5.4375 L 6.828125 0 L 2.3125 0 L 2.3125 -19.5 L 10.75 -19.5 C 12.476562 -19.5 13.976562 -19.210938 15.25 -18.640625 C 16.519531 -18.066406 17.5 -17.25 18.1875 -16.1875 C 18.875 -15.125 19.21875 -13.867188 19.21875 -12.421875 C 19.21875 -10.972656 18.867188 -9.722656 18.171875 -8.671875 C 17.484375 -7.628906 16.5 -6.828125 15.21875 -6.265625 L 19.578125 0 Z M 14.65625 -12.421875 C 14.65625 -13.515625 14.300781 -14.351562 13.59375 -14.9375 C 12.882812 -15.53125 11.851562 -15.828125 10.5 -15.828125 L 6.828125 -15.828125 L 6.828125 -9.03125 L 10.5 -9.03125 C 11.851562 -9.03125 12.882812 -9.328125 13.59375 -9.921875 C 14.300781 -10.515625 14.65625 -11.347656 14.65625 -12.421875 Z M 14.65625 -12.421875 "/></g></g></g><g fill="#000000" fill-opacity="1"><g transform="translate(156.408548, 198.979674)"><g><path d="M 2.3125 -19.5 L 6.828125 -19.5 L 6.828125 0 L 2.3125 0 Z M 2.3125 -19.5 "/></g></g></g><g fill="#000000" fill-opacity="1"><g transform="translate(171.112603, 198.979674)"><g><path d="M 14.59375 0 L 9.890625 -6.765625 L 5.265625 0 L 0.078125 0 L 7.296875 -9.921875 L 0.453125 -19.5 L 5.578125 -19.5 L 10.0625 -13.171875 L 14.453125 -19.5 L 19.328125 -19.5 L 12.53125 -10.078125 L 19.8125 0 Z M 14.59375 0 "/></g></g></g><g fill="#000000" fill-opacity="1"><g transform="translate(222.950262, 198.979674)"><g><path d="M 6.359375 -15.828125 L 0.109375 -15.828125 L 0.109375 -19.5 L 17.109375 -19.5 L 17.109375 -15.828125 L 10.859375 -15.828125 L 10.859375 0 L 6.359375 0 Z M 6.359375 -15.828125 "/></g></g></g><g fill="#000000" fill-opacity="1"><g transform="translate(248.514674, 198.979674)"><g><path d="M 17.40625 -3.625 L 17.40625 0 L 2.3125 0 L 2.3125 -19.5 L 17.046875 -19.5 L 17.046875 -15.875 L 6.796875 -15.875 L 6.796875 -11.640625 L 15.859375 -11.640625 L 15.859375 -8.140625 L 6.796875 -8.140625 L 6.796875 -3.625 Z M 17.40625 -3.625 "/></g></g></g><g fill="#000000" fill-opacity="1"><g transform="translate(275.554812, 198.979674)"><g><path d="M 9.421875 -7.65625 L 6.796875 -4.9375 L 6.796875 0 L 2.3125 0 L 2.3125 -19.5 L 6.796875 -19.5 L 6.796875 -10.390625 L 15.4375 -19.5 L 20.453125 -19.5 L 12.375 -10.8125 L 20.921875 0 L 15.65625 0 Z M 9.421875 -7.65625 "/></g></g></g></svg>